<?xml version="1.0"?>
<svg xmlns="http://www.w3.org/2000/svg" xmlns:xlink="http://www.w3.org/1999/xlink" xmlns:svgjs="http://svgjs.com/svgjs" version="1.1" width="512" height="512" x="0" y="0" viewBox="0 0 512.001 512.001" style="enable-background:new 0 0 512 512" xml:space="preserve" class=""><g>
<g xmlns="http://www.w3.org/2000/svg">
	<g>
		<g>
			<circle cx="387.001" cy="125.001" r="25" fill="#ffffff" data-original="#000000" style="" class=""/>
			<path d="M492.001,0.001h-200c-5.305,0-10.392,2.107-14.143,5.857l-272,271.999c-5.72,5.721-7.431,14.323-4.335,21.796     C4.619,307.127,11.912,312,20.001,312h180v180c0,8.089,4.873,15.382,12.347,18.477c7.488,3.103,16.086,1.373,21.796-4.335     l272-271.999c3.75-3.751,5.857-8.838,5.857-14.143V20.001C512.001,8.955,503.047,0.001,492.001,0.001z M472.001,211.716l-232,232     V292c0-11.046-8.954-20-20-20H68.286L300.285,40.001h171.716V211.716z" fill="#ffffff" data-original="#000000" style="" class=""/>
		</g>
	</g>
</g>
<g xmlns="http://www.w3.org/2000/svg">
</g>
<g xmlns="http://www.w3.org/2000/svg">
</g>
<g xmlns="http://www.w3.org/2000/svg">
</g>
<g xmlns="http://www.w3.org/2000/svg">
</g>
<g xmlns="http://www.w3.org/2000/svg">
</g>
<g xmlns="http://www.w3.org/2000/svg">
</g>
<g xmlns="http://www.w3.org/2000/svg">
</g>
<g xmlns="http://www.w3.org/2000/svg">
</g>
<g xmlns="http://www.w3.org/2000/svg">
</g>
<g xmlns="http://www.w3.org/2000/svg">
</g>
<g xmlns="http://www.w3.org/2000/svg">
</g>
<g xmlns="http://www.w3.org/2000/svg">
</g>
<g xmlns="http://www.w3.org/2000/svg">
</g>
<g xmlns="http://www.w3.org/2000/svg">
</g>
<g xmlns="http://www.w3.org/2000/svg">
</g>
</g></svg>
